<?xml version="1.0" standalone="no"?>
<!DOCTYPE svg PUBLIC "-//W3C//DTD SVG 20010904//EN"
 "http://www.w3.org/TR/2001/REC-SVG-20010904/DTD/svg10.dtd">
<svg version="1.0" xmlns="http://www.w3.org/2000/svg"
 width="256.000000pt" height="256.000000pt" viewBox="0 0 256.000000 256.000000"
 preserveAspectRatio="xMidYMid meet">

<g transform="translate(0.000000,256.000000) scale(0.100000,-0.100000)"
fill="#000000" stroke="none">
<path d="M545 2396 c-242 -56 -422 -220 -499 -455 -87 -262 -50 -507 114 -752
120 -182 270 -332 700 -703 371 -320 390 -336 420 -336 30 0 49 15 422 337
422 365 579 522 698 702 138 206 185 412 146 631 -50 271 -220 478 -459 556
-69 23 -100 28 -197 28 -134 1 -214 -20 -320 -81 -77 -45 -201 -167 -250 -246
-19 -31 -37 -57 -40 -57 -3 0 -21 26 -40 57 -49 79 -173 201 -250 246 -36 21
-94 47 -130 58 -85 26 -235 33 -315 15z"/>
</g>
</svg>
