<?xml version="1.0" standalone="no"?>
<!DOCTYPE svg PUBLIC "-//W3C//DTD SVG 20010904//EN"
 "http://www.w3.org/TR/2001/REC-SVG-20010904/DTD/svg10.dtd">
<svg version="1.0" xmlns="http://www.w3.org/2000/svg"
 width="256.000000pt" height="256.000000pt" viewBox="0 0 256.000000 256.000000"
 preserveAspectRatio="xMidYMid meet">

<g transform="translate(0.000000,256.000000) scale(0.100000,-0.100000)"
fill="#000000" stroke="none">
<path d="M1550 2491 c-146 -45 -212 -193 -145 -328 56 -111 185 -153 302 -99
111 52 160 196 104 306 -49 94 -167 149 -261 121z m190 -289 c0 -11 -39 -46
-67 -61 -12 -6 -43 -11 -68 -11 -25 0 -56 5 -68 11 -28 15 -67 50 -67 61 0 4
61 8 135 8 74 0 135 -4 135 -8z"/>
<path d="M2418 2093 c-34 -28 -227 -193 -263 -224 -20 -18 -25 -16 -170 49
l-150 67 -206 3 c-267 4 -277 2 -333 -86 -52 -81 -78 -136 -121 -265 -55 -159
-95 -392 -95 -550 0 -124 -87 -445 -150 -554 -34 -60 -56 -70 -46 -22 3 17 6
65 6 105 0 67 2 74 20 74 11 0 20 1 20 3 0 1 -9 26 -21 56 -12 34 -17 57 -11
63 9 9 -66 167 -79 168 -3 0 -14 -18 -24 -41 -23 -49 -53 -71 -109 -79 l-41
-5 3 -90 c8 -229 73 -355 183 -355 50 0 104 47 146 127 30 57 103 268 103 298
0 19 14 19 30 0 18 -22 66 -18 89 7 25 26 26 34 46 273 15 182 38 329 69 425
13 43 14 39 15 -114 1 -108 -13 -334 -44 -709 -44 -541 -45 -551 -27 -585 40
-78 135 -91 198 -28 26 26 33 43 38 87 7 60 76 899 76 924 0 11 10 15 35 15
19 0 35 -1 35 -2 2 -77 82 -972 89 -990 13 -34 55 -66 97 -74 48 -9 104 21
127 69 19 37 18 44 -27 600 -38 465 -46 604 -46 805 0 133 2 242 5 242 2 0 55
-22 117 -49 145 -63 148 -63 180 -47 37 20 365 302 372 322 12 32 5 66 -19 89
-32 33 -75 32 -117 -2z m-1228 -1159 c0 -35 -18 -74 -34 -74 -20 0 -36 31 -36
67 0 26 3 29 35 29 30 0 35 -3 35 -22z m-440 -396 c-1 -42 -1 -43 -15 -18 -19
33 -19 60 0 60 11 0 15 -11 15 -42z"/>
<path d="M577 1326 c-27 -7 -61 -23 -75 -35 -15 -11 -43 -30 -63 -41 -50 -27
-65 -91 -34 -150 18 -34 43 -38 75 -12 17 13 24 33 29 77 3 33 11 59 16 57 12
-3 8 -97 -6 -133 -9 -22 -5 -38 25 -97 41 -82 65 -102 121 -102 56 0 80 20
121 102 30 60 34 74 25 101 -14 46 -18 121 -6 125 6 1 13 -23 17 -55 11 -88
71 -125 103 -63 16 31 20 97 7 117 -4 7 -38 32 -76 57 -97 64 -179 79 -279 52z
m39 -187 c3 -6 0 -17 -7 -25 -18 -17 -44 -2 -36 20 7 18 33 21 43 5z m141 -5
c8 -22 -18 -37 -36 -20 -7 8 -10 19 -7 25 10 16 36 13 43 -5z m-67 -169 c17
-20 4 -35 -31 -35 -21 0 -29 5 -29 18 0 10 3 22 7 25 11 12 40 8 53 -8z"/>
<path d="M464 901 c-26 -50 -38 -83 -32 -89 6 -6 2 -30 -11 -66 -19 -55 -19
-56 0 -56 13 0 19 -7 19 -22 0 -13 5 -142 11 -288 12 -282 18 -310 62 -310 13
0 32 6 43 14 18 13 19 30 22 255 2 195 6 241 17 241 11 0 12 -41 8 -235 l-6
-235 66 0 67 0 0 150 0 150 -29 41 c-51 69 -81 195 -81 336 0 71 -1 73 -30 88
-18 9 -39 34 -52 60 -12 25 -24 45 -27 45 -4 0 -25 -36 -47 -79z"/>
<path d="M391 428 c-11 -25 -24 -73 -27 -106 l-7 -59 -97 -27 c-130 -34 -259
-83 -240 -89 35 -13 208 -37 264 -37 50 0 63 -4 74 -20 12 -19 45 -26 74 -15
11 4 12 18 7 63 -4 31 -8 102 -9 157 -1 55 -5 118 -9 140 l-8 40 -22 -47z"/>
<path d="M917 412 c-14 -15 -17 -40 -18 -123 0 -57 -4 -127 -8 -156 -8 -56 -3
-63 43 -63 45 0 62 48 26 73 -20 14 -21 15 -4 77 15 52 16 72 7 127 -14 77
-23 90 -46 65z"/>
<path d="M752 250 c3 -136 5 -153 22 -166 29 -21 64 -17 80 9 9 14 16 68 20
157 l6 136 -43 -1 c-23 0 -53 4 -65 8 l-24 9 4 -152z"/>
</g>
</svg>
