<?xml version="1.0" standalone="no"?>
<!DOCTYPE svg PUBLIC "-//W3C//DTD SVG 20010904//EN"
 "http://www.w3.org/TR/2001/REC-SVG-20010904/DTD/svg10.dtd">
<svg version="1.0" xmlns="http://www.w3.org/2000/svg"
 width="256.000000pt" height="256.000000pt" viewBox="0 0 256.000000 256.000000"
 preserveAspectRatio="xMidYMid meet">

<g transform="translate(0.000000,256.000000) scale(0.100000,-0.100000)"
fill="#000000" stroke="none">
<path d="M356 2375 c-79 -28 -127 -96 -127 -181 0 -78 34 -134 103 -168 57
-28 83 -31 140 -16 144 40 185 244 67 332 -64 47 -117 57 -183 33z"/>
<path d="M226 1919 c-37 -29 -56 -71 -56 -124 l0 -47 53 43 c28 24 47 37 41
29 -6 -8 -59 -79 -118 -157 -58 -79 -109 -155 -112 -170 -8 -41 128 -410 162
-440 47 -42 115 -26 140 32 16 38 12 51 -64 261 l-40 110 96 132 c53 72 98
129 100 128 1 -2 -20 -62 -49 -133 l-51 -130 53 -144 c36 -98 53 -159 53 -189
-1 -96 -68 -168 -164 -178 -55 -5 -51 2 -70 -107 -5 -33 -53 -167 -106 -298
-105 -260 -108 -280 -59 -330 48 -47 131 -40 166 14 9 13 58 128 110 254 88
215 95 240 120 385 15 85 29 148 33 140 3 -8 20 -67 37 -130 31 -110 32 -125
38 -365 7 -279 10 -293 76 -321 59 -24 123 3 146 64 7 18 8 112 4 267 l-7 240
-49 195 -49 196 0 242 c0 224 1 242 18 242 9 0 107 -16 217 -35 110 -19 214
-35 230 -35 34 0 67 25 119 88 53 65 48 129 -11 160 -38 21 -71 14 -111 -22
l-38 -35 -208 37 -208 37 -17 35 c-9 19 -31 45 -50 57 -32 22 -44 23 -191 23
-144 0 -159 -2 -184 -21z"/>
<path d="M1753 1080 c-21 -8 -23 -16 -23 -74 0 -77 6 -96 30 -96 25 0 100 87
100 116 0 38 -65 70 -107 54z"/>
<path d="M1634 1031 c-17 -11 -38 -33 -45 -50 -8 -17 -17 -31 -21 -31 -13 0
-68 -52 -68 -65 0 -8 17 -33 39 -55 38 -41 39 -41 106 -38 61 2 68 0 85 -22
11 -14 22 -36 25 -50 4 -14 23 -65 42 -114 l36 -89 -32 -149 c-34 -157 -32
-180 9 -193 12 -4 31 0 44 8 19 13 28 37 47 127 26 124 18 116 101 95 21 -5
27 -2 37 24 17 39 46 65 66 58 21 -9 19 -33 -7 -67 -13 -19 -23 -49 -26 -85
l-4 -55 -43 0 c-49 0 -68 -17 -63 -57 5 -46 36 -55 174 -50 140 4 171 17 217
84 15 23 43 51 62 63 61 38 145 179 145 245 0 32 -29 13 -58 -38 -27 -48 -101
-127 -120 -127 -4 0 -14 21 -21 46 -19 64 -94 141 -230 237 -112 79 -244 198
-253 226 -3 11 -15 7 -46 -19 -71 -56 -131 -39 -153 44 -6 22 -9 58 -6 78 6
44 3 45 -39 19z"/>
</g>
</svg>
