<?xml version="1.0" standalone="no"?>
<!DOCTYPE svg PUBLIC "-//W3C//DTD SVG 20010904//EN"
 "http://www.w3.org/TR/2001/REC-SVG-20010904/DTD/svg10.dtd">
<svg version="1.0" xmlns="http://www.w3.org/2000/svg"
 width="512.000000pt" height="512.000000pt" viewBox="0 0 512.000000 512.000000"
 preserveAspectRatio="xMidYMid meet">

<g transform="translate(0.000000,512.000000) scale(0.100000,-0.100000)"
fill="#000000" stroke="none">
<path d="M4128 4794 l-298 -325 155 -193 c85 -106 155 -199 155 -206 0 -7 6
-10 14 -7 8 3 125 96 260 207 l246 201 0 324 0 325 -117 0 -118 -1 -297 -325z"/>
<path d="M4740 4478 c0 -603 2 -646 19 -683 38 -82 89 -104 249 -105 l112 0 0
715 0 715 -190 0 -190 0 0 -642z"/>
<path d="M2335 4915 c-14 -13 -25 -32 -25 -41 0 -20 65 -84 86 -84 8 0 87 -20
175 -45 89 -25 163 -44 165 -42 7 7 -342 237 -360 237 -9 0 -28 -11 -41 -25z"/>
<path d="M2327 4692 c-18 -19 -22 -50 -9 -68 4 -5 57 -36 117 -68 133 -70 277
-163 364 -236 l65 -54 218 -37 c119 -21 222 -40 228 -44 5 -3 10 -17 10 -29 0
-52 -8 -51 -357 7 -349 58 -367 59 -379 10 -15 -60 -7 -66 244 -192 236 -119
346 -185 455 -274 60 -49 106 -67 172 -67 100 0 268 69 353 145 l51 46 -163
202 c-90 111 -171 217 -180 234 -12 25 -26 35 -59 43 -113 29 -229 79 -333
146 -105 67 -199 103 -470 178 -149 42 -280 76 -291 76 -11 0 -27 -8 -36 -18z"/>
<path d="M102 4599 c-26 -13 -55 -39 -70 -62 l-27 -41 0 -426 0 -426 27 -41
c16 -24 44 -49 70 -62 44 -21 48 -21 908 -21 860 0 864 0 908 21 26 13 54 38
70 62 26 40 27 45 32 234 l5 193 108 108 c59 59 107 111 107 115 0 4 -44 7
-98 7 -63 0 -102 4 -110 12 -8 8 -12 47 -12 110 0 132 -23 179 -107 222 -29
14 -120 16 -900 16 -867 0 -868 0 -911 -21z m76 -262 c6 -7 18 -102 27 -212 8
-109 17 -200 18 -201 1 -2 24 47 51 109 55 127 78 155 109 134 11 -7 44 -67
73 -133 29 -65 54 -115 54 -109 2 92 34 403 42 412 14 18 43 16 59 -3 11 -13
10 -57 -5 -257 -26 -366 -25 -357 -53 -370 -34 -15 -43 -4 -116 163 -36 80
-68 145 -72 145 -4 0 -36 -65 -72 -145 -35 -80 -70 -151 -77 -159 -16 -15 -52
-7 -60 15 -3 8 -16 145 -28 304 -18 238 -19 291 -9 304 16 19 45 21 59 3z
m755 -1 c15 -16 207 -566 207 -595 0 -28 -26 -46 -52 -34 -15 6 -32 41 -63
128 l-41 120 -76 3 -76 3 -30 -83 c-16 -46 -35 -100 -41 -120 -16 -50 -35 -64
-66 -50 -14 7 -25 19 -25 28 0 27 192 578 208 597 18 21 36 22 55 3z m371 -2
c14 -13 16 -55 16 -306 0 -257 -2 -294 -17 -310 -20 -22 -37 -23 -57 -2 -14
13 -16 55 -16 309 0 254 2 296 16 309 8 9 22 16 29 16 7 0 21 -7 29 -16z m586
1 c7 -8 10 -25 6 -40 -6 -24 -9 -25 -96 -25 l-90 0 0 -263 c0 -221 -2 -266
-16 -285 -18 -26 -37 -28 -58 -6 -14 13 -16 53 -16 284 l0 269 -92 3 c-88 3
-93 4 -96 26 -7 49 4 52 233 52 176 0 215 -3 225 -15z"/>
<path d="M882 4113 l-21 -63 45 0 c51 0 51 1 15 85 l-17 40 -22 -62z"/>
<path d="M3634 4439 c-26 -13 -54 -60 -54 -92 0 -31 21 -62 189 -270 154 -193
176 -209 238 -186 48 18 78 67 69 112 -7 35 -302 413 -339 434 -26 15 -74 15
-103 2z"/>
<path d="M4810 3592 c-20 -10 -42 -32 -52 -52 -17 -33 -18 -139 -18 -1787 l0
-1753 190 0 190 0 0 1805 0 1805 -137 0 c-111 0 -145 -3 -173 -18z"/>
<path d="M2253 3070 c-28 -12 -31 -58 -6 -101 20 -33 83 -62 118 -53 29 7 29
9 14 69 -19 76 -67 109 -126 85z"/>
<path d="M1176 3005 c-166 -34 -294 -97 -401 -197 -135 -126 -218 -286 -231
-450 -9 -97 6 -175 62 -345 79 -238 72 -329 -36 -477 -65 -90 -87 -164 -106
-356 -16 -166 -66 -414 -116 -570 -54 -169 -151 -366 -271 -552 l-38 -58 567
0 566 0 -7 63 c-13 118 -46 262 -95 411 -76 229 -85 365 -34 537 19 63 30 79
54 79 41 0 44 -25 20 -131 -18 -81 -22 -120 -18 -202 4 -89 12 -122 57 -256
53 -160 87 -303 99 -424 l7 -72 196 -3 195 -2 13 62 c23 113 25 350 5 463 -9
55 -18 118 -18 140 -1 36 2 40 25 43 14 2 31 -3 38 -11 34 -42 66 -338 53
-482 -5 -50 -8 -92 -6 -94 6 -7 63 117 78 170 8 29 20 105 26 166 11 115 45
255 79 321 18 36 18 60 6 711 -6 371 -8 692 -4 715 18 97 61 161 159 236 140
106 249 244 278 353 l10 37 -41 0 c-89 1 -181 72 -193 151 -5 31 -10 39 -23
35 -9 -3 -56 -20 -106 -37 -71 -25 -111 -33 -192 -37 -98 -4 -105 -3 -210 34
-102 36 -115 38 -243 41 -87 1 -160 -3 -204 -12z m508 -180 c49 -23 79 -71 84
-131 4 -45 1 -55 -24 -83 -55 -62 -154 -49 -212 27 -22 28 -27 46 -27 90 0 48
3 57 33 83 38 34 93 39 146 14z m-447 -133 c136 -108 195 -230 194 -400 -1
-292 -200 -448 -429 -336 -98 48 -208 179 -200 237 2 16 11 23 33 25 26 2 33
-3 53 -38 52 -92 125 -149 215 -170 94 -21 174 25 218 122 20 45 23 70 24 163
0 105 -2 114 -33 177 -24 50 -52 85 -107 136 -41 38 -75 72 -75 77 0 14 32 45
46 45 7 0 34 -17 61 -38z"/>
<path d="M1590 2746 c-28 -35 51 -114 86 -86 21 18 17 48 -11 75 -27 28 -57
32 -75 11z"/>
<path d="M1952 539 c-1 -9 -7 -63 -12 -120 -16 -160 -49 -252 -126 -362 -19
-26 -34 -49 -34 -52 0 -3 43 -5 95 -5 l95 0 -1 178 c-1 157 -13 404 -17 361z"/>
</g>
</svg>
