<?xml version="1.0" standalone="no"?>
<!DOCTYPE svg PUBLIC "-//W3C//DTD SVG 20010904//EN"
 "http://www.w3.org/TR/2001/REC-SVG-20010904/DTD/svg10.dtd">
<svg version="1.0" xmlns="http://www.w3.org/2000/svg"
 width="512.000000pt" height="512.000000pt" viewBox="0 0 512.000000 512.000000"
 preserveAspectRatio="xMidYMid meet">

<g transform="translate(0.000000,512.000000) scale(0.100000,-0.100000)"
fill="#000000" stroke="none">
<path d="M1214 4465 c-232 -42 -431 -150 -601 -328 -78 -82 -98 -111 -146
-209 -91 -183 -133 -364 -144 -613 -22 -537 180 -1139 554 -1652 374 -513 929
-965 1591 -1297 l93 -47 147 76 c1068 554 1788 1366 2016 2273 56 225 70 339
70 572 0 299 -36 478 -139 685 -59 118 -111 186 -215 279 -385 343 -904 366
-1367 60 -158 -105 -367 -328 -474 -507 -18 -32 -36 -57 -39 -57 -3 0 -21 25
-39 57 -102 169 -299 385 -451 492 -261 184 -584 266 -856 216z m1073 -1124
c154 -71 238 -319 164 -486 -28 -62 -55 -93 -106 -116 -51 -24 -99 -24 -151 0
-156 71 -240 318 -165 486 28 62 55 93 106 116 51 24 99 24 152 0z m698 0 c51
-23 78 -54 106 -116 75 -168 -9 -415 -165 -486 -52 -24 -100 -24 -151 0 -51
23 -78 54 -106 116 -75 168 9 415 165 486 52 24 100 24 151 0z m-1179 -480
c156 -71 240 -318 165 -486 -28 -62 -55 -93 -106 -116 -76 -35 -155 -16 -227
55 -110 107 -149 296 -89 431 28 62 55 93 106 116 51 24 99 24 151 0z m1659 0
c51 -23 78 -54 106 -116 58 -130 22 -318 -82 -425 -74 -76 -156 -97 -234 -61
-51 23 -78 54 -106 116 -75 168 9 415 165 486 52 24 100 24 151 0z m-755 -337
c251 -112 462 -457 487 -796 8 -113 -7 -167 -61 -224 -100 -104 -232 -85 -476
69 -27 17 -50 22 -101 22 -59 0 -71 -4 -121 -36 -204 -136 -357 -155 -454 -55
-54 57 -69 111 -61 224 28 369 264 726 542 819 64 21 169 11 245 -23z"/>
</g>
</svg>
