<?xml version="1.0" standalone="no"?>
<!DOCTYPE svg PUBLIC "-//W3C//DTD SVG 20010904//EN"
 "http://www.w3.org/TR/2001/REC-SVG-20010904/DTD/svg10.dtd">
<svg version="1.0" xmlns="http://www.w3.org/2000/svg"
 width="512.000000pt" height="512.000000pt" viewBox="0 0 512.000000 512.000000"
 preserveAspectRatio="xMidYMid meet">

<g transform="translate(0.000000,512.000000) scale(0.100000,-0.100000)"
fill="#000000" stroke="none">
<path d="M1766 4823 c-26 -76 -41 -253 -27 -324 13 -64 90 -232 120 -263 27
-27 98 -31 140 -9 27 15 42 37 82 123 63 137 73 201 54 341 -14 109 -36 179
-55 179 -14 0 -46 -53 -67 -113 l-17 -48 -59 3 -58 3 -32 75 c-40 92 -58 100
-81 33z m117 -337 c3 -8 -1 -20 -9 -27 -12 -10 -18 -9 -31 3 -8 9 -12 21 -9
27 10 16 43 14 49 -3z m157 -6 c0 -24 -26 -38 -42 -22 -16 16 -2 42 22 42 13
0 20 -7 20 -20z m-75 -174 c27 -19 13 -46 -25 -46 -38 0 -52 27 -25 46 10 8
22 14 25 14 3 0 15 -6 25 -14z"/>
<path d="M909 4696 c-31 -6 -69 -21 -84 -31 -15 -11 -46 -32 -69 -46 -66 -41
-83 -102 -49 -174 20 -41 47 -46 87 -14 20 16 26 30 27 62 1 23 5 56 9 72 6
25 8 27 15 12 10 -23 -2 -136 -16 -153 -16 -19 71 -186 106 -202 36 -17 106
-15 132 3 12 8 40 53 62 100 32 66 39 89 32 104 -15 27 -26 151 -14 151 13 0
23 -34 23 -83 0 -45 36 -87 73 -87 47 0 76 118 41 168 -8 12 -32 31 -52 43
-20 11 -52 30 -69 43 -19 14 -60 29 -96 35 -76 13 -85 13 -158 -3z m29 -224
c3 -16 -2 -22 -17 -22 -24 0 -35 15 -27 36 9 23 40 13 44 -14z m160 5 c4 -20
-25 -34 -40 -19 -15 15 -1 44 19 40 10 -2 19 -11 21 -21z m-70 -179 c27 -27
-2 -53 -48 -41 -19 5 -27 33 -13 46 11 11 48 8 61 -5z"/>
<path d="M3710 4691 c-30 -10 -76 -22 -102 -25 -43 -7 -50 -12 -73 -50 -27
-47 -32 -102 -12 -130 10 -14 21 -16 50 -11 31 6 42 15 59 49 32 63 49 86 59
80 5 -3 -5 -32 -22 -65 -37 -73 -35 -87 29 -212 51 -100 84 -124 150 -113 55
8 77 30 117 113 68 140 68 140 33 201 -18 32 -27 59 -23 70 5 13 15 0 41 -50
31 -58 40 -67 71 -73 47 -9 63 7 63 64 0 72 -35 116 -102 129 -29 6 -78 18
-108 26 -72 21 -162 20 -230 -3z m65 -216 c0 -30 -39 -27 -43 3 -3 20 0 23 20
20 15 -2 23 -10 23 -23z m161 14 c3 -6 -1 -18 -9 -27 -13 -12 -19 -13 -31 -3
-8 7 -12 19 -9 27 6 17 39 19 49 3z m-85 -179 c10 -6 19 -20 19 -31 0 -17 -5
-20 -37 -17 -41 3 -51 18 -28 42 19 19 21 19 46 6z"/>
<path d="M2773 4668 c-18 -11 -33 -24 -33 -29 0 -5 -6 -9 -14 -9 -35 0 -17
-86 38 -177 l20 -32 21 23 c56 60 186 60 214 -1 l12 -26 25 34 c14 19 30 44
35 57 5 12 12 22 16 22 5 0 8 17 8 38 -1 45 -29 90 -61 98 -13 3 -24 10 -24
14 0 5 -51 8 -112 8 -93 -1 -119 -4 -145 -20z"/>
<path d="M2679 4492 c-8 -12 -22 -22 -31 -22 -26 0 -74 -121 -97 -242 -8 -43
-6 -49 14 -62 12 -8 28 -21 36 -28 8 -7 31 -25 51 -40 70 -53 148 -28 148 47
0 19 4 35 9 35 11 0 8 106 -3 132 -4 9 -5 22 -1 28 3 5 2 10 -3 10 -5 0 -21
24 -36 53 -14 28 -36 65 -49 82 l-24 29 -14 -22z"/>
<path d="M3110 4492 c0 -12 -12 -32 -26 -45 -36 -31 -53 -66 -60 -131 -4 -31
-11 -59 -16 -62 -5 -3 -4 -12 3 -20 7 -9 9 -29 6 -51 -5 -27 -2 -42 10 -55 9
-10 14 -21 10 -24 -3 -3 2 -14 11 -23 31 -32 104 -15 157 35 20 19 40 34 44
34 17 0 33 47 23 66 -5 11 -12 50 -15 87 -6 66 -36 137 -58 137 -5 0 -15 11
-21 25 -6 14 -19 25 -28 25 -9 0 -21 5 -28 12 -9 9 -12 7 -12 -10z"/>
<path d="M2865 4456 c-17 -7 -35 -19 -41 -27 -17 -21 -23 -58 -11 -62 5 -1 11
-12 11 -23 1 -11 5 -24 8 -30 4 -5 7 -28 8 -50 0 -21 3 -55 5 -74 3 -19 6 -42
7 -50 4 -50 71 -75 103 -40 19 21 22 33 28 110 3 25 8 53 12 63 4 9 5 26 2 37
-3 11 -1 23 4 26 13 8 10 76 -4 95 -30 39 -79 48 -132 25z m80 -286 c9 -15
-14 -40 -36 -40 -22 0 -33 16 -25 35 6 17 52 20 61 5z"/>
<path d="M3630 4308 c-6 -24 -24 -70 -39 -103 -17 -36 -25 -67 -20 -75 4 -8
14 -188 22 -398 17 -419 17 -422 77 -422 55 0 57 11 65 303 6 190 11 267 19
264 8 -3 10 -78 7 -265 l-4 -262 72 0 71 0 0 266 c0 208 3 265 13 262 9 -4 13
-70 17 -270 4 -204 8 -269 19 -281 16 -21 60 -22 86 -3 18 13 20 38 32 287 7
151 14 328 16 395 2 67 7 126 10 131 4 6 -6 39 -22 74 -15 35 -34 82 -41 103
l-13 40 -34 -67 c-41 -82 -76 -107 -148 -107 -77 0 -114 25 -153 104 -17 36
-34 66 -36 66 -1 0 -9 -19 -16 -42z"/>
<path d="M820 4315 c0 -6 -20 -46 -45 -89 -32 -57 -43 -85 -39 -105 3 -15 -3
-50 -15 -81 -25 -67 -25 -63 -1 -55 15 5 20 1 24 -17 4 -21 26 -522 26 -591 0
-31 39 -77 65 -77 9 0 27 11 40 25 l25 24 0 261 c0 229 2 260 16 260 13 0 15
-31 13 -262 l-2 -263 72 -3 72 -3 -7 266 c-7 243 -6 265 9 265 15 0 17 -22 17
-224 0 -270 5 -312 36 -333 28 -18 69 -11 83 15 5 10 14 135 20 277 6 143 14
288 17 323 5 58 7 62 26 56 18 -5 20 -3 13 12 -23 54 -38 126 -28 132 6 4 -9
42 -42 99 l-52 92 -24 -51 c-31 -66 -66 -88 -142 -88 -76 0 -108 20 -146 89
-17 31 -31 51 -31 46z"/>
<path d="M1724 4233 l-39 -88 2 -140 c6 -294 28 -662 42 -679 17 -21 75 -21
92 1 11 12 15 77 19 282 7 356 24 358 28 4 l2 -263 72 0 71 0 -4 262 c-3 203
-1 262 9 265 9 4 12 -24 12 -115 0 -65 3 -187 7 -271 7 -165 12 -181 62 -181
57 0 59 8 76 349 22 461 22 464 -21 563 -20 46 -39 87 -43 91 -4 4 -16 -10
-26 -32 -31 -69 -66 -95 -138 -99 -79 -4 -116 17 -152 88 -14 27 -27 50 -28
50 -2 0 -21 -39 -43 -87z"/>
<path d="M4704 4241 c-17 -4 -37 -12 -45 -17 -8 -4 -24 -7 -37 -5 -56 7 -142
-52 -142 -98 0 -24 58 -103 73 -98 6 2 15 17 19 34 9 35 64 87 80 77 6 -4 -3
-17 -21 -31 -18 -15 -35 -40 -41 -64 -10 -35 -15 -41 -36 -38 -24 3 -32 -87
-14 -153 14 -48 61 -88 105 -88 37 0 48 10 64 62 14 44 44 68 82 68 38 0 69
-29 88 -81 15 -39 20 -44 52 -47 71 -6 119 61 119 167 0 53 -2 59 -23 65 -17
4 -27 17 -36 45 -6 22 -23 49 -36 59 -34 27 -33 45 0 30 15 -7 35 -31 48 -60
12 -26 25 -48 29 -48 13 0 68 82 68 102 0 10 -15 35 -34 55 -30 33 -40 38 -84
39 -27 1 -60 8 -73 15 -28 15 -161 22 -205 10z m5 -235 c15 -18 3 -46 -20 -46
-22 0 -34 22 -25 45 7 19 30 19 45 1z m210 0 c15 -18 3 -46 -20 -46 -22 0 -34
22 -25 45 7 19 30 19 45 1z m-99 -61 c17 -20 4 -35 -31 -35 -21 0 -29 5 -29
18 0 10 3 22 7 25 11 12 40 8 53 -8z"/>
<path d="M70 4191 c-12 -23 -14 -131 -2 -131 4 0 9 -24 10 -52 1 -34 13 -75
32 -115 37 -77 60 -82 90 -23 11 22 27 40 35 40 8 0 24 -18 35 -40 29 -58 52
-53 84 16 14 31 26 67 26 81 0 13 5 33 11 44 7 15 7 24 -2 35 -9 11 -8 14 4
14 12 0 15 13 13 65 0 35 -6 69 -13 76 -21 21 -61 1 -83 -41 -20 -39 -21 -40
-75 -40 -46 0 -56 3 -66 23 -32 62 -79 85 -99 48z m90 -176 c15 -18 5 -35 -21
-35 -12 0 -19 7 -19 18 0 33 20 42 40 17z m188 -14 c-2 -9 -11 -17 -21 -19
-21 -4 -35 27 -17 38 19 12 42 0 38 -19z m-93 -24 c24 -18 11 -37 -26 -37 -30
0 -38 17 -17 38 15 15 20 15 43 -1z"/>
<path d="M2823 4130 c2 -32 -20 -62 -56 -78 -19 -8 -27 -18 -23 -27 3 -8 1
-17 -5 -21 -7 -4 -6 -10 1 -19 8 -9 4 -17 -15 -29 l-26 -17 7 -157 7 -157 -24
-10 c-22 -9 -24 -16 -27 -94 -2 -67 0 -87 14 -102 9 -11 23 -19 30 -19 8 0 14
-17 16 -47 3 -42 6 -48 27 -51 29 -5 41 12 41 60 0 31 4 37 30 47 18 6 30 17
31 28 0 10 1 49 2 87 2 66 1 70 -25 85 -24 14 -28 22 -28 62 0 58 10 109 21
109 5 0 9 -31 9 -69 0 -62 2 -70 25 -85 24 -16 25 -21 25 -111 0 -80 -3 -98
-19 -114 -10 -10 -23 -20 -28 -22 -14 -6 -26 -59 -13 -59 6 0 13 7 16 15 4 8
10 12 15 9 6 -3 16 0 24 6 8 7 15 8 15 3 0 -5 10 -9 23 -8 12 1 27 0 32 -4 6
-3 22 -6 38 -7 22 -1 27 3 27 21 0 15 -8 26 -19 30 -35 11 -43 33 -46 125 l-4
90 31 23 c30 22 30 23 25 90 -5 54 -3 67 9 67 11 0 14 -16 14 -70 0 -38 0 -73
1 -77 0 -5 -8 -12 -18 -18 -10 -5 -21 -14 -24 -18 -5 -6 -5 -94 0 -169 1 -11
9 -18 20 -18 25 0 34 -15 41 -65 9 -72 70 -53 70 22 0 21 5 33 14 33 26 0 40
32 43 94 3 82 -4 112 -28 123 -20 8 -21 16 -20 167 2 146 0 160 -18 180 -11
11 -20 23 -20 26 0 15 -17 44 -42 71 -16 17 -29 37 -29 45 0 21 -9 17 -37 -16
-19 -24 -33 -30 -63 -30 -38 0 -64 23 -82 75 -6 17 -7 16 -5 -5z"/>
<path d="M4216 3908 c16 -110 10 -220 -12 -258 -27 -46 -40 -47 -48 -3 -6 40
-47 115 -52 98 -2 -5 -8 -98 -13 -205 -5 -107 -11 -201 -12 -209 -3 -9 8 -17
28 -21 63 -14 99 43 48 76 -23 15 -24 18 -10 44 8 15 28 33 45 40 17 7 52 37
79 66 80 88 100 182 62 303 -25 79 -63 131 -98 131 l-26 0 9 -62z"/>
<path d="M216 3865 c-9 -24 -8 -25 15 -25 14 0 19 5 17 17 -4 23 -24 27 -32 8z"/>
<path d="M59 3813 c-19 -46 -24 -75 -24 -143 0 -53 -5 -94 -14 -109 -16 -29
-17 -97 0 -117 9 -11 8 -18 -5 -32 -24 -28 -20 -52 12 -64 16 -6 33 -21 38
-32 11 -25 46 -32 63 -12 9 11 9 47 0 165 -6 83 -9 154 -5 158 15 15 21 -16
30 -147 l9 -139 38 -6 c21 -4 52 -4 68 0 34 7 37 17 47 183 5 90 10 112 22
112 12 0 13 -10 9 -57 -17 -161 -19 -253 -7 -268 19 -23 49 -18 61 9 7 14 22
27 34 30 31 8 39 34 20 63 -12 17 -13 28 -5 42 15 28 12 77 -5 111 -11 21 -15
55 -14 112 2 71 -2 92 -25 143 l-27 59 -19 -31 c-22 -36 -51 -49 -79 -34 -26
14 -64 14 -96 -1 -33 -15 -72 2 -81 37 -3 14 -9 25 -13 25 -4 0 -18 -26 -32
-57z"/>
<path d="M4739 3833 c-5 -16 -11 -33 -14 -40 -5 -15 18 -23 68 -23 63 0 72 9
53 54 -14 33 -18 36 -56 36 -35 0 -42 -4 -51 -27z"/>
<path d="M4510 3775 c-10 -29 -9 -44 4 -82 22 -65 20 -81 -14 -113 -24 -23
-30 -36 -30 -72 0 -24 7 -54 16 -67 16 -22 16 -24 0 -33 -20 -11 -21 -61 -1
-78 9 -8 27 -10 47 -6 24 5 34 2 45 -14 8 -12 25 -20 41 -20 54 0 56 8 57 152
0 93 4 140 13 157 20 35 34 12 21 -34 -11 -39 -7 -230 5 -242 9 -10 94 -16
130 -9 24 5 35 12 34 24 0 9 3 53 7 97 5 59 3 93 -8 128 -10 31 -12 49 -5 53
14 9 25 -12 38 -69 12 -57 12 -106 0 -167 -6 -34 -5 -50 6 -67 20 -32 67 -31
92 1 13 17 22 22 29 15 6 -6 23 -9 39 -7 41 4 56 49 27 80 l-21 23 20 25 c29
35 19 94 -21 132 -36 34 -36 32 -16 88 17 49 19 93 5 120 -9 17 -12 16 -43
-15 -41 -41 -96 -54 -131 -32 -19 13 -31 14 -65 5 -27 -7 -54 -7 -80 -1 -29 8
-45 7 -66 -4 -40 -22 -93 -8 -131 33 l-33 34 -11 -35z"/>
<path d="M703 3720 c-45 -69 -54 -210 -19 -293 13 -31 12 -34 -8 -43 -26 -11
-33 -56 -12 -73 10 -9 29 -11 54 -6 l39 6 -9 37 c-4 20 -11 120 -16 222 l-7
185 -22 -35z"/>
<path d="M1642 3720 c-12 -19 -25 -51 -29 -70 -13 -56 -7 -172 10 -212 15 -36
15 -37 -9 -53 -50 -32 -13 -89 49 -75 21 4 31 12 28 21 -2 8 -7 95 -12 194
-13 253 -10 237 -37 195z"/>
<path d="M2206 3708 c-3 -24 -8 -113 -11 -198 -4 -86 -7 -164 -8 -174 -2 -21
43 -39 69 -29 38 14 36 83 -1 83 -19 0 -19 0 1 68 22 75 15 192 -15 250 -12
23 -23 42 -26 42 -2 0 -6 -19 -9 -42z"/>
<path d="M3530 3710 c-32 -60 -40 -188 -16 -259 20 -61 20 -61 1 -61 -37 0
-39 -69 -1 -83 27 -10 71 8 69 29 -1 10 -5 93 -9 184 -3 91 -10 181 -13 200
l-7 35 -24 -45z"/>
<path d="M1256 3548 c-4 -106 -10 -203 -13 -215 -4 -19 0 -23 31 -29 42 -7 66
7 66 42 0 12 -9 29 -21 37 -20 14 -20 16 -3 73 21 74 15 184 -15 243 -12 22
-25 41 -30 41 -4 0 -11 -87 -15 -192z"/>
<path d="M2605 3546 c-11 -12 -21 -32 -22 -46 -2 -14 -4 -38 -5 -55 -2 -16
-11 -38 -20 -47 -22 -22 -22 -32 -1 -53 11 -12 28 -16 54 -13 26 2 40 -1 44
-10 3 -8 12 -12 19 -9 8 3 17 1 19 -6 3 -7 3 6 -1 28 -3 26 -15 47 -34 63 -24
20 -28 30 -24 61 2 20 1 52 -3 72 l-6 36 -20 -21z"/>
<path d="M3190 3489 c0 -66 -2 -73 -30 -99 -20 -19 -30 -38 -30 -57 0 -25 4
-29 27 -27 15 0 29 6 31 12 2 7 18 12 37 12 54 0 75 51 30 75 -23 11 -33 55
-14 55 10 0 10 3 1 12 -7 7 -12 24 -12 38 0 25 -16 50 -32 50 -4 0 -8 -32 -8
-71z"/>
<path d="M3115 3009 c-43 -21 -48 -46 -60 -277 -6 -122 -16 -226 -21 -231 -5
-4 -96 -40 -202 -79 l-192 -72 -221 0 c-238 0 -250 -2 -300 -57 -52 -55 -88
-150 -116 -303 -23 -124 -26 -650 -5 -688 17 -29 71 -53 102 -45 23 6 23 5 17
-53 -4 -32 -20 -234 -38 -448 -29 -366 -30 -391 -14 -425 43 -96 167 -110 237
-26 9 11 19 29 22 40 3 11 23 250 46 530 22 281 43 516 45 523 2 6 20 12 39
12 32 0 36 -3 40 -32 3 -18 23 -257 45 -530 30 -375 44 -504 56 -528 47 -90
184 -92 242 -4 23 36 23 34 -31 699 -44 532 -46 576 -44 874 l3 314 195 73
c233 88 236 90 250 123 15 37 39 529 27 564 -15 46 -76 68 -122 46z"/>
<path d="M2395 2921 c-175 -43 -252 -252 -145 -399 59 -81 174 -120 275 -92
53 15 128 77 154 129 97 189 -79 412 -284 362z"/>
</g>
</svg>
