<?xml version="1.0" standalone="no"?>
<!DOCTYPE svg PUBLIC "-//W3C//DTD SVG 20010904//EN"
 "http://www.w3.org/TR/2001/REC-SVG-20010904/DTD/svg10.dtd">
<svg version="1.0" xmlns="http://www.w3.org/2000/svg"
 width="3508.000000pt" height="2480.000000pt" viewBox="0 0 3508.000000 2480.000000"
 preserveAspectRatio="xMidYMid meet">

<g transform="translate(0.000000,2480.000000) scale(0.100000,-0.100000)"
fill="#000000" stroke="none">
<path d="M21517 20568 c-404 -724 -528 -1490 -333 -2055 19 -54 37 -105 40
-113 5 -11 -22 -28 -111 -70 -344 -161 -644 -378 -928 -671 -282 -291 -490
-584 -705 -989 -119 -225 -183 -335 -258 -439 -332 -464 -892 -756 -1717 -896
-179 -30 -423 -59 -673 -80 -149 -12 -374 -15 -1198 -15 l-1014 0 0 -340 0
-340 338 -2 337 -3 3 -1572 2 -1573 370 0 370 0 2 1573 3 1572 540 6 c398 5
581 11 695 23 973 104 1729 433 2260 982 227 235 309 357 560 837 161 307 330
537 575 782 224 225 427 375 697 515 269 139 583 246 912 309 l88 17 -64 42
c-229 149 -418 449 -496 787 -70 304 -44 611 74 874 l26 59 51 -18 c515 -181
1662 -575 3682 -1265 331 -113 1138 -390 1410 -484 94 -33 67 8 259 -396 68
-143 243 -503 389 -800 l264 -540 984 -187 c1552 -295 2465 -471 2984 -576
l480 -97 -1 -131 c-3 -295 -77 -677 -189 -981 -79 -211 -222 -482 -358 -673
-162 -229 -449 -534 -662 -703 -431 -343 -942 -562 -1461 -626 -284 -35 -1130
-40 -1989 -11 -370 13 -928 7 -1100 -10 -593 -62 -1062 -337 -1379 -810 -70
-104 -184 -333 -226 -455 -68 -196 -125 -480 -131 -655 l-3 -65 340 0 339 0 7
91 c32 420 236 796 543 1004 142 96 308 164 475 194 233 42 815 62 1365 47
1281 -35 1267 -35 1506 -23 318 17 497 41 744 103 407 102 791 276 1174 531
265 177 465 340 672 548 583 589 898 1325 994 2325 31 330 42 875 17 875 -7 0
-172 31 -1782 339 -724 138 -1448 278 -2397 462 l-482 93 -228 466 c-126 256
-308 627 -404 826 l-174 361 -90 30 c-49 17 -394 135 -765 263 -371 127 -972
333 -1335 457 -1617 551 -2259 771 -3172 1087 -375 130 -688 239 -696 242 -10
4 -25 -14 -50 -58z"/>
<path d="M26330 17123 c-58 -19 -284 -84 -503 -144 -413 -113 -602 -168 -595
-174 6 -6 889 -181 1086 -216 101 -17 185 -29 189 -26 21 22 31 380 12 469
-14 66 -48 128 -68 127 -9 0 -63 -17 -121 -36z"/>
<path d="M4275 15178 c-8 -82 -265 -3711 -265 -3743 l0 -25 314 0 314 0 6 63
c6 59 53 989 96 1885 11 228 21 457 21 510 1 54 4 111 8 127 l7 30 7 -30 c3
-16 18 -100 32 -185 59 -358 123 -647 359 -1645 l163 -690 260 -3 260 -2 37
147 c131 521 372 1525 415 1723 27 129 68 333 90 454 22 120 43 221 46 224 3
3 5 -55 5 -129 0 -170 17 -671 30 -899 10 -176 80 -1543 80 -1567 0 -10 67
-13 330 -13 l330 0 0 41 c0 22 -36 633 -80 1357 -44 724 -94 1544 -110 1822
-17 278 -33 529 -36 558 l-5 52 -392 -2 -391 -3 -143 -645 c-196 -885 -331
-1577 -383 -1955 -22 -162 -31 -165 -54 -17 -46 282 -165 853 -401 1917 -80
362 -148 670 -151 682 l-6 23 -393 0 -393 0 -7 -62z"/>
<path d="M7770 13325 l0 -1915 375 0 375 0 0 1915 0 1915 -375 0 -375 0 0
-1915z"/>
<path d="M9190 13325 l0 -1915 370 0 370 0 0 637 0 636 83 154 c45 84 84 153
87 153 3 0 129 -355 281 -788 l276 -787 408 -3 c385 -2 407 -1 402 15 -2 10
-105 266 -227 568 -123 303 -317 782 -431 1065 l-208 515 427 824 c235 453
429 827 430 832 2 5 -170 8 -408 7 l-411 -3 -251 -600 c-137 -330 -290 -708
-338 -840 -108 -293 -100 -275 -111 -275 -5 0 -9 362 -9 860 l0 860 -370 0
-370 0 0 -1915z"/>
<path d="M11800 13325 l0 -1915 865 0 865 0 -2 323 -3 322 -492 3 -493 2 0
515 0 515 435 0 435 0 0 310 0 310 -435 0 -435 0 2 443 3 442 458 3 457 2 0
320 0 320 -830 0 -830 0 0 -1915z"/>
<path d="M5609 10847 c-143 -41 -254 -174 -306 -367 -25 -91 -25 -339 0 -430
45 -167 144 -295 264 -340 86 -32 206 -26 288 14 115 57 191 164 236 331 31
114 31 336 1 448 -43 156 -129 274 -237 323 -67 31 -178 40 -246 21z m162
-239 c47 -31 95 -132 110 -228 23 -153 -11 -337 -77 -410 -49 -54 -93 -67
-150 -45 -86 33 -133 134 -142 307 -7 160 23 285 86 352 49 52 116 61 173 24z"/>
<path d="M4118 10840 c-122 -15 -108 60 -108 -575 l0 -554 48 -8 c75 -12 282
-9 342 6 142 34 240 109 303 228 50 96 67 169 74 313 10 213 -35 364 -137 469
-56 56 -97 80 -180 105 -65 20 -245 28 -342 16z m258 -225 c62 -18 109 -63
143 -135 24 -51 26 -66 26 -190 0 -151 -13 -207 -66 -280 -40 -55 -114 -90
-191 -90 l-58 0 0 349 c0 270 3 350 13 354 24 10 84 7 133 -8z"/>
<path d="M6981 10835 c-174 -49 -300 -190 -347 -390 -23 -101 -21 -288 5 -388
54 -208 176 -327 369 -358 87 -14 201 -1 308 35 l69 23 0 304 0 304 -170 0
-170 0 0 -110 0 -110 63 -3 62 -3 0 -104 0 -103 -31 -7 c-77 -17 -171 22 -226
93 -46 61 -67 138 -67 252 0 164 48 268 149 319 69 36 187 35 267 -1 l54 -25
23 115 c18 94 20 117 9 124 -62 40 -273 59 -367 33z"/>
<path d="M9810 10839 c-41 -5 -81 -11 -87 -14 -10 -3 -13 -126 -13 -565 l0
-560 110 0 110 0 0 220 0 220 38 0 c80 0 102 -36 143 -242 45 -219 28 -198
160 -198 111 0 111 0 105 23 -4 12 -22 98 -41 190 -40 191 -63 258 -101 298
l-26 27 40 36 c22 21 51 62 67 98 24 53 29 76 28 143 0 154 -64 262 -182 306
-66 24 -231 33 -351 18z m259 -224 c31 -15 61 -77 61 -123 0 -15 -9 -46 -20
-70 -23 -50 -64 -72 -135 -72 l-45 0 0 140 0 140 55 0 c31 0 69 -7 84 -15z"/>
<path d="M15472 10840 c-40 -5 -79 -11 -87 -14 -13 -5 -15 -79 -15 -566 l0
-560 105 0 105 0 0 220 0 220 34 0 c87 0 111 -35 146 -215 12 -60 28 -136 37
-167 l16 -58 113 0 113 0 -9 28 c-5 15 -26 106 -45 202 -39 188 -52 226 -91
277 l-25 33 37 37 c20 20 48 61 63 92 23 49 26 69 26 156 0 79 -5 109 -21 145
-70 153 -211 200 -502 170z m270 -239 c27 -24 32 -36 36 -88 7 -105 -44 -163
-145 -163 l-53 0 0 133 c0 74 3 137 7 140 3 4 33 7 65 7 49 0 62 -4 90 -29z"/>
<path d="M8520 10720 l0 -120 115 0 115 0 0 -450 0 -450 110 0 110 0 0 450 0
450 115 0 115 0 0 120 0 120 -340 0 -340 0 0 -120z"/>
<path d="M11100 10834 c0 -4 -242 -1052 -257 -1112 l-5 -23 113 3 114 3 30
140 30 140 109 0 c127 0 108 21 151 -167 l27 -118 114 0 c84 0 114 3 114 13 0
6 -59 263 -132 570 l-132 557 -138 0 c-76 0 -138 -2 -138 -6z m175 -462 c19
-90 35 -165 35 -168 0 -2 -34 -4 -75 -4 -41 0 -75 1 -75 3 0 2 16 79 35 172
19 94 35 172 36 175 2 11 10 -23 44 -178z"/>
<path d="M12162 10273 l3 -568 108 -3 107 -3 0 571 0 570 -110 0 -110 0 2
-567z"/>
<path d="M12960 10270 l0 -570 100 0 100 0 0 368 1 367 38 -101 c21 -55 89
-221 151 -368 l113 -267 111 3 111 3 0 565 0 565 -104 3 -104 3 5 -340 c2
-187 3 -339 1 -337 -2 1 -14 36 -28 76 -13 40 -75 191 -137 336 l-112 264
-123 0 -123 0 0 -570z"/>
<path d="M14260 10270 l0 -570 283 2 282 3 3 118 3 117 -176 0 -175 0 0 115 0
115 155 0 155 0 0 115 0 115 -155 0 -155 0 0 105 0 105 165 0 165 0 0 115 0
115 -275 0 -275 0 0 -570z"/>
</g>
</svg>
