<?xml version="1.0" standalone="no"?>
<!DOCTYPE svg PUBLIC "-//W3C//DTD SVG 20010904//EN"
 "http://www.w3.org/TR/2001/REC-SVG-20010904/DTD/svg10.dtd">
<svg version="1.0" xmlns="http://www.w3.org/2000/svg"
 width="751.000000pt" height="713.000000pt" viewBox="0 0 751.000000 713.000000"
 preserveAspectRatio="xMidYMid meet">

<g transform="translate(0.000000,713.000000) scale(0.100000,-0.100000)"
fill="#000000" stroke="none">
<path d="M5690 7123 c-409 -63 -691 -204 -976 -488 -299 -298 -513 -682 -643
-1155 -22 -80 -43 -158 -46 -175 -7 -27 -8 -28 -19 -11 -383 623 -869 1082
-1454 1376 -407 204 -765 290 -1147 277 -274 -10 -496 -62 -701 -165 -138 -70
-232 -139 -349 -256 -232 -232 -339 -481 -352 -821 -15 -384 111 -826 397
-1390 200 -395 431 -712 757 -1041 374 -378 736 -659 1253 -973 500 -304 596
-364 702 -436 595 -408 1082 -886 1410 -1385 104 -158 167 -290 203 -425 l14
-50 0 73 c4 427 -177 889 -500 1277 -280 335 -619 610 -1404 1140 -659 444
-897 635 -1270 1016 -496 506 -819 1025 -984 1579 -74 247 -114 491 -114 695
-1 165 23 275 90 409 131 264 404 430 768 467 246 25 520 -26 850 -158 380
-153 725 -370 1070 -673 347 -306 564 -636 710 -1080 51 -157 94 -198 174
-164 59 25 64 45 66 267 2 177 5 217 29 322 71 323 206 656 366 905 127 197
317 407 470 520 143 105 326 185 483 210 109 18 292 8 382 -20 391 -123 656
-496 731 -1027 27 -195 7 -485 -52 -766 l-17 -77 -68 -46 c-151 -100 -266
-279 -315 -490 -29 -122 -25 -295 9 -400 31 -92 83 -161 151 -197 64 -34 173
-31 246 7 96 50 224 195 293 333 87 171 102 461 33 634 -16 41 -20 63 -14 80
20 54 79 298 98 402 69 389 51 762 -51 1058 -150 435 -508 744 -944 814 -81
14 -272 18 -335 8z"/>
<path d="M5513 5129 c-47 -14 -132 -97 -179 -175 -192 -323 -171 -734 48 -955
100 -100 244 -105 342 -11 90 87 179 259 211 413 19 91 19 249 -1 347 -33 165
-138 323 -247 372 -45 21 -120 25 -174 9z"/>
<path d="M4660 4331 c-131 -43 -231 -166 -266 -329 -16 -80 -18 -226 -3 -308
26 -145 114 -298 212 -370 216 -159 453 -43 532 261 19 75 19 247 0 340 -33
158 -146 322 -261 380 -61 31 -161 43 -214 26z"/>
<path d="M7085 3872 c-144 -51 -312 -221 -375 -382 -50 -126 -65 -307 -34
-410 53 -179 237 -267 417 -200 185 69 337 256 398 490 26 102 23 244 -7 325
-56 149 -242 232 -399 177z"/>
<path d="M5645 3759 c-91 -13 -197 -70 -246 -132 -22 -28 -50 -69 -61 -91 -72
-142 -236 -317 -413 -440 -56 -39 -148 -118 -210 -180 -120 -120 -169 -200
-200 -321 -72 -284 95 -550 385 -611 54 -12 105 -15 185 -11 136 7 388 -15
551 -48 129 -26 430 -109 448 -124 6 -5 55 -27 110 -50 92 -38 104 -41 196
-41 158 0 261 41 356 142 121 128 179 350 140 534 -24 109 -88 235 -201 394
-52 74 -116 176 -141 226 -44 90 -54 128 -94 359 -22 122 -95 232 -194 290
-133 78 -434 129 -611 104z"/>
</g>
</svg>
